<?xml version="1.0" encoding="UTF-8" standalone="no"?>
<!-- Created with Inkscape (http://www.inkscape.org/) -->

<svg
   xmlns:dc="http://purl.org/dc/elements/1.1/"
   xmlns:cc="http://creativecommons.org/ns#"
   xmlns:rdf="http://www.w3.org/1999/02/22-rdf-syntax-ns#"
   xmlns:svg="http://www.w3.org/2000/svg"
   xmlns="http://www.w3.org/2000/svg"
   xmlns:sodipodi="http://sodipodi.sourceforge.net/DTD/sodipodi-0.dtd"
   xmlns:inkscape="http://www.inkscape.org/namespaces/inkscape"
   width="57.186634mm"
   height="57.186634mm"
   viewBox="0 0 202.6298 202.6298"
   id="svg4414"
   version="1.1"
   inkscape:version="0.91 r13725"
   sodipodi:docname="PHI_logo_active.svg">
  <defs
     id="defs4416" />
  <sodipodi:namedview
     id="base"
     pagecolor="#ffffff"
     bordercolor="#666666"
     borderopacity="1.0"
     inkscape:pageopacity="0.0"
     inkscape:pageshadow="2"
     inkscape:zoom="1.4"
     inkscape:cx="27.759639"
     inkscape:cy="70.616744"
     inkscape:document-units="px"
     inkscape:current-layer="layer1"
     showgrid="false"
     inkscape:window-width="1920"
     inkscape:window-height="1009"
     inkscape:window-x="0"
     inkscape:window-y="21"
     inkscape:window-maximized="1"
     fit-margin-top="0"
     fit-margin-left="0"
     fit-margin-right="0"
     fit-margin-bottom="0" />
  <metadata
     id="metadata4419">
    <rdf:RDF>
      <cc:Work
         rdf:about="">
        <dc:format>image/svg+xml</dc:format>
        <dc:type
           rdf:resource="http://purl.org/dc/dcmitype/StillImage" />
        <dc:title></dc:title>
      </cc:Work>
    </rdf:RDF>
  </metadata>
  <g
     inkscape:label="Layer 1"
     inkscape:groupmode="layer"
     id="layer1"
     transform="translate(-62.954643,-400.34913)">
    <g
       id="g4299">
      <circle
         style="opacity:1;fill:#d40037;fill-opacity:1;stroke:none;stroke-width:1.87020648;stroke-linecap:round;stroke-linejoin:bevel;stroke-miterlimit:4;stroke-dasharray:none;stroke-dashoffset:0;stroke-opacity:1"
         id="circle5210"
         cx="164.26955"
         cy="501.66403"
         r="101.3149" />
      <g
         id="g5316"
         transform="translate(-4497.667,-2383.4136)">
        <path
           inkscape:connector-curvature="0"
           id="path5290"
           d="m 4650.4136,2937.1002 0,-3.0242 4.7884,0 4.7884,0 0,-30.7152 0,-30.7151 -0.747,-0.1494 c -0.4108,-0.082 -2.5656,-0.2271 -4.7884,-0.3221 l -4.0414,-0.1728 0,-2.8596 0,-2.8596 7.6236,-0.01 c 4.1931,0 10.4022,-0.1705 13.7982,-0.374 10.603,-0.6353 15.2039,-0.4711 21.4598,0.7657 5.1306,1.0144 8.6107,2.4634 11.925,4.9653 3.1699,2.3929 6.0032,6.4415 7.0334,10.0506 0.7033,2.4638 0.9911,6.2342 0.6883,9.0174 -0.5372,4.9386 -2.0716,8.2898 -5.3896,11.7717 -3.8162,4.0046 -8.8979,6.6394 -15.6812,8.1305 -3.9032,0.858 -7.0967,1.1244 -13.7352,1.1459 l -6.4265,0.021 -0.066,11.1519 -0.066,11.152 5.2951,0 5.295,0 0,3.0242 0,3.0243 -15.8773,0 -15.8773,0 0,-3.0243 z m 36.6691,-31.968 c 7.0882,-1.8977 11.4499,-6.4511 12.626,-13.1805 0.6759,-3.8681 0.083,-9.1628 -1.3327,-11.9005 -3.5335,-6.833 -12.267,-9.7268 -25.0915,-8.3137 l -1.4491,0.1597 0,16.8334 0,16.8335 0.6931,0.1176 c 0.3812,0.065 3.3581,0.089 6.6155,0.054 5.1265,-0.055 6.1935,-0.1362 7.9387,-0.6035 z"
           style="color:#000000;display:inline;overflow:visible;visibility:visible;opacity:0.156;fill:#2e002e;fill-opacity:1;fill-rule:nonzero;stroke:none;stroke-width:3.23799992;marker:none;enable-background:accumulate" />
        <g
           id="g5282">
          <path
             sodipodi:nodetypes="ccccccccccccccccccsssccccccccsccccc"
             id="path5273"
             d="m 4645.4068,2834.032 0,2.8352 0,2.851 5.2609,0.095 5.3721,0.095 0,9.2618 c 0.079,6.8389 -0.054,9.455 -0.013,9.5741 -0.026,0.479 11.6395,-0.035 11.8411,-0.5195 l 0,-9.0389 0,-9.4508 4.8041,0 4.8199,0 0,-2.8509 0,-2.851 -16.0348,0 z m -2.4888,28.4468 -2.2209,0.2363 c -8.5959,0.9564 -15.2171,3.7508 -19.9412,8.3955 -4.6539,4.5757 -6.2152,8.7944 -5.9067,16.0191 0.1995,4.6714 0.9361,7.216 2.9613,10.2699 3.9649,5.979 9.847,9.1017 19.8151,10.5534 1.8353,0.2672 5.9346,0.5143 9.1201,0.5355 l 5.7964,0.031 0,-3.0086 0,-3.0242 -2.2209,0.2048 c -1.2251,0.1142 -3.8706,0.029 -5.8752,-0.189 -7.7362,-0.8424 -12.6908,-3.7144 -15.1056,-8.7736 -2.7786,-5.8211 -2.0296,-13.8002 1.7642,-18.9488 1.8779,-2.5486 6.7962,-5.3762 10.4746,-6.017 l 1.3388,-0.2363 0,-3.0242 0,-3.0243 z"
             style="color:#000000;display:inline;overflow:visible;visibility:visible;opacity:0.756;fill:#ffffff;fill-opacity:1;fill-rule:nonzero;stroke:none;stroke-width:3.23799992;marker:none;enable-background:accumulate"
             inkscape:connector-curvature="0" />
          <path
             inkscape:connector-curvature="0"
             id="path5275"
             d="m 4646.4136,2933.1002 0,-3.0242 4.7884,0 4.7884,0 0,-30.7152 0,-30.7151 -0.747,-0.1494 c -0.4108,-0.082 -2.5656,-0.2271 -4.7884,-0.3221 l -4.0414,-0.1728 0,-2.8596 0,-2.8596 7.6236,-0.01 c 4.1931,0 10.4022,-0.1705 13.7982,-0.374 10.603,-0.6353 15.2039,-0.4711 21.4598,0.7657 5.1306,1.0144 8.6107,2.4634 11.925,4.9653 3.1699,2.3929 6.0032,6.4415 7.0334,10.0506 0.7033,2.4638 0.9911,6.2342 0.6883,9.0174 -0.5372,4.9386 -2.0716,8.2898 -5.3896,11.7717 -3.8162,4.0046 -8.8979,6.6394 -15.6812,8.1305 -3.9032,0.858 -7.0967,1.1244 -13.7352,1.1459 l -6.4265,0.021 -0.066,11.1519 -0.066,11.152 5.2951,0 5.295,0 0,3.0242 0,3.0243 -15.8773,0 -15.8773,0 0,-3.0243 z m 36.6691,-31.968 c 7.0882,-1.8977 11.4499,-6.4511 12.626,-13.1805 0.6759,-3.8681 0.083,-9.1628 -1.3327,-11.9005 -3.5335,-6.833 -12.267,-9.7268 -25.0915,-8.3137 l -1.4491,0.1597 0,16.8334 0,16.8335 0.6931,0.1176 c 0.3812,0.065 3.3581,0.089 6.6155,0.054 5.1265,-0.055 6.1935,-0.1362 7.9387,-0.6035 z"
             style="color:#000000;display:inline;overflow:visible;visibility:visible;fill:#ffffff;fill-opacity:1;fill-rule:nonzero;stroke:none;stroke-width:3.23799992;marker:none;enable-background:accumulate" />
        </g>
        <path
           style="color:#000000;font-style:normal;font-variant:normal;font-weight:normal;font-stretch:normal;font-size:medium;line-height:normal;font-family:sans-serif;text-indent:0;text-align:start;text-decoration:none;text-decoration-line:none;text-decoration-style:solid;text-decoration-color:#000000;letter-spacing:normal;word-spacing:normal;text-transform:none;direction:ltr;block-progression:tb;writing-mode:lr-tb;baseline-shift:baseline;text-anchor:start;white-space:normal;clip-rule:nonzero;display:inline;overflow:visible;visibility:visible;opacity:1;isolation:auto;mix-blend-mode:normal;color-interpolation:sRGB;color-interpolation-filters:linearRGB;solid-color:#000000;solid-opacity:1;fill:#ffffff;fill-opacity:1;fill-rule:evenodd;stroke:#d40037;stroke-width:0.06603204px;stroke-linecap:butt;stroke-linejoin:miter;stroke-miterlimit:4;stroke-dasharray:none;stroke-dashoffset:0;stroke-opacity:1;color-rendering:auto;image-rendering:auto;shape-rendering:auto;text-rendering:auto;enable-background:accumulate"
           d="m 4656.0272,2839.9033 0,18.8271 0.033,0 0,-0.066 0,0 0.033,-18.7612 z"
           id="path5277"
           inkscape:connector-curvature="0"
           sodipodi:nodetypes="ccccccc" />
      </g>
    </g>
  </g>
</svg>
