<?xml version="1.0" encoding="UTF-8" standalone="no"?>
<!-- Created with Inkscape (http://www.inkscape.org/) -->

<svg
   xmlns:dc="http://purl.org/dc/elements/1.1/"
   xmlns:cc="http://creativecommons.org/ns#"
   xmlns:rdf="http://www.w3.org/1999/02/22-rdf-syntax-ns#"
   xmlns:svg="http://www.w3.org/2000/svg"
   xmlns="http://www.w3.org/2000/svg"
   xmlns:sodipodi="http://sodipodi.sourceforge.net/DTD/sodipodi-0.dtd"
   xmlns:inkscape="http://www.inkscape.org/namespaces/inkscape"
   width="58.597744mm"
   height="58.597744mm"
   viewBox="0 0 207.6298 207.6298"
   id="svg4414"
   version="1.1"
   inkscape:version="0.91 r13725"
   sodipodi:docname="PHI_logo_inactive.svg">
  <defs
     id="defs4416" />
  <sodipodi:namedview
     id="base"
     pagecolor="#ffffff"
     bordercolor="#666666"
     borderopacity="1.0"
     inkscape:pageopacity="0.0"
     inkscape:pageshadow="2"
     inkscape:zoom="1.4"
     inkscape:cx="-239.26955"
     inkscape:cy="79.30183"
     inkscape:document-units="px"
     inkscape:current-layer="layer1"
     showgrid="false"
     inkscape:window-width="1920"
     inkscape:window-height="1009"
     inkscape:window-x="0"
     inkscape:window-y="21"
     inkscape:window-maximized="1"
     fit-margin-top="0"
     fit-margin-left="0"
     fit-margin-right="0"
     fit-margin-bottom="0" />
  <metadata
     id="metadata4419">
    <rdf:RDF>
      <cc:Work
         rdf:about="">
        <dc:format>image/svg+xml</dc:format>
        <dc:type
           rdf:resource="http://purl.org/dc/dcmitype/StillImage" />
        <dc:title></dc:title>
      </cc:Work>
    </rdf:RDF>
  </metadata>
  <g
     inkscape:label="Layer 1"
     inkscape:groupmode="layer"
     id="layer1"
     transform="translate(-329.98383,-404.03422)">
    <g
       id="g4251">
      <circle
         r="101.3149"
         cy="507.84912"
         cx="433.79874"
         id="circle5220"
         style="opacity:1;fill:none;fill-opacity:1;stroke:#d40037;stroke-width:5;stroke-linecap:round;stroke-linejoin:bevel;stroke-miterlimit:4;stroke-dasharray:none;stroke-dashoffset:0;stroke-opacity:1" />
      <g
         id="g5307"
         transform="translate(-4008.1378,-2377.2285)">
        <g
           id="g5294"
           transform="matrix(0.4240714,0,0,0.4240714,3300.0842,1778.5428)"
           style="opacity:0.09500002;fill:#2e002e;fill-opacity:1">
          <path
             inkscape:connector-curvature="0"
             id="path5298"
             d="m 2660.7061,2727.2704 0,-7.1314 11.2915,0 11.2916,0 0,-72.4291 0,-72.4291 -1.7614,-0.3523 c -0.9688,-0.1937 -6.05,-0.5356 -11.2915,-0.7597 l -9.5302,-0.4073 0,-6.7433 0,-6.7432 17.9773,-0.012 c 9.8876,0 24.5293,-0.4021 32.5374,-0.8819 25.0028,-1.4981 35.8521,-1.111 50.6042,1.8055 12.0984,2.3921 20.3049,5.809 28.1203,11.7086 7.475,5.6428 14.1561,15.1898 16.5854,23.7003 1.6584,5.8099 2.3371,14.7009 1.623,21.264 -1.2668,11.6455 -4.8849,19.548 -12.7091,27.7586 -8.999,9.4434 -20.982,15.6565 -36.9778,19.1725 -9.204,2.0232 -16.7346,2.6515 -32.3888,2.7022 l -15.1544,0.049 -0.1547,26.2973 -0.1548,26.2973 12.4863,0 12.4862,0 0,7.1315 0,7.1315 -37.4402,0 -37.4403,0 0,-7.1315 z m 86.4692,-75.3835 c 16.7148,-4.475 27.0001,-15.2123 29.7733,-31.0808 1.5939,-9.1214 0.1958,-21.6068 -3.1426,-28.0625 -8.3323,-16.1129 -28.9268,-22.9367 -59.1681,-19.6045 l -3.4171,0.3766 0,39.6947 0,39.6949 1.6343,0.2775 c 0.8989,0.1526 7.9189,0.2099 15.6001,0.1272 12.0888,-0.13 14.6049,-0.3212 18.7201,-1.4231 z"
             style="color:#000000;display:inline;overflow:visible;visibility:visible;fill:#2e002e;fill-opacity:1;fill-rule:nonzero;stroke:none;stroke-width:3.23799992;marker:none;enable-background:accumulate" />
          <path
             sodipodi:nodetypes="ccccccc"
             inkscape:connector-curvature="0"
             id="path5300"
             d="m 2683.3759,2507.5034 0,44.396 0.078,0 0,-0.1553 0,0 0.078,-44.2407 z"
             style="color:#000000;font-style:normal;font-variant:normal;font-weight:normal;font-stretch:normal;font-size:medium;line-height:normal;font-family:sans-serif;text-indent:0;text-align:start;text-decoration:none;text-decoration-line:none;text-decoration-style:solid;text-decoration-color:#000000;letter-spacing:normal;word-spacing:normal;text-transform:none;direction:ltr;block-progression:tb;writing-mode:lr-tb;baseline-shift:baseline;text-anchor:start;white-space:normal;clip-rule:nonzero;display:inline;overflow:visible;visibility:visible;opacity:1;isolation:auto;mix-blend-mode:normal;color-interpolation:sRGB;color-interpolation-filters:linearRGB;solid-color:#000000;solid-opacity:1;fill:#2e002e;fill-opacity:1;fill-rule:evenodd;stroke:#d40037;stroke-width:0.15570971px;stroke-linecap:butt;stroke-linejoin:miter;stroke-miterlimit:4;stroke-dasharray:none;stroke-dashoffset:0;stroke-opacity:1;color-rendering:auto;image-rendering:auto;shape-rendering:auto;text-rendering:auto;enable-background:accumulate" />
        </g>
        <g
           transform="matrix(0.4240714,0,0,0.4240714,3298.0842,1776.5428)"
           id="g5191-6-0">
          <path
             inkscape:connector-curvature="0"
             style="color:#000000;display:inline;overflow:visible;visibility:visible;fill:#d40037;fill-opacity:1;fill-rule:nonzero;stroke:none;stroke-width:3.23799992;marker:none;enable-background:accumulate"
             d="m 2658.3321,2493.6583 0,6.6858 0,6.7228 12.4056,0.2229 12.6679,0.2228 0,21.8402 c 0.1874,16.1268 -0.1266,22.2959 -0.03,22.5767 -0.061,1.1295 27.4468,-0.082 27.9222,-1.2251 l 0,-21.3145 0,-22.2859 11.3287,0 11.3658,0 0,-6.7228 0,-6.7229 -37.8117,0 z m -5.8688,67.0804 -5.2371,0.5572 c -20.2701,2.2553 -35.8835,8.8447 -47.0232,19.7972 -10.9743,10.7901 -14.6562,20.7382 -13.9286,37.7746 0.4705,11.0156 2.2074,17.0161 6.9829,24.2173 9.3496,14.0992 23.2202,21.4628 46.726,24.8859 4.3277,0.6303 13.9943,1.2129 21.5059,1.2628 l 13.6686,0.074 0,-7.0944 0,-7.1314 -5.2371,0.4829 c -2.889,0.2693 -9.1273,0.069 -13.8544,-0.4457 -18.2425,-1.9864 -29.926,-8.7589 -35.6202,-20.6888 -6.5523,-13.7269 -4.7862,-32.5422 4.16,-44.6831 4.4284,-6.0099 16.0261,-12.6777 24.7001,-14.1886 l 3.1571,-0.5573 0,-7.1314 0,-7.1315 z"
             id="path5767-1-9-3-9-7-0"
             sodipodi:nodetypes="ccccccccccccccccccsssccccccccsccccc" />
          <path
             style="color:#000000;display:inline;overflow:visible;visibility:visible;fill:#2e002e;fill-opacity:1;fill-rule:nonzero;stroke:none;stroke-width:3.23799992;marker:none;enable-background:accumulate"
             d="m 2660.7061,2727.2704 0,-7.1314 11.2915,0 11.2916,0 0,-72.4291 0,-72.4291 -1.7614,-0.3523 c -0.9688,-0.1937 -6.05,-0.5356 -11.2915,-0.7597 l -9.5302,-0.4073 0,-6.7433 0,-6.7432 17.9773,-0.012 c 9.8876,0 24.5293,-0.4021 32.5374,-0.8819 25.0028,-1.4981 35.8521,-1.111 50.6042,1.8055 12.0984,2.3921 20.3049,5.809 28.1203,11.7086 7.475,5.6428 14.1561,15.1898 16.5854,23.7003 1.6584,5.8099 2.3371,14.7009 1.623,21.264 -1.2668,11.6455 -4.8849,19.548 -12.7091,27.7586 -8.999,9.4434 -20.982,15.6565 -36.9778,19.1725 -9.204,2.0232 -16.7346,2.6515 -32.3888,2.7022 l -15.1544,0.049 -0.1547,26.2973 -0.1548,26.2973 12.4863,0 12.4862,0 0,7.1315 0,7.1315 -37.4402,0 -37.4403,0 0,-7.1315 z m 86.4692,-75.3835 c 16.7148,-4.475 27.0001,-15.2123 29.7733,-31.0808 1.5939,-9.1214 0.1958,-21.6068 -3.1426,-28.0625 -8.3323,-16.1129 -28.9268,-22.9367 -59.1681,-19.6045 l -3.4171,0.3766 0,39.6947 0,39.6949 1.6343,0.2775 c 0.8989,0.1526 7.9189,0.2099 15.6001,0.1272 12.0888,-0.13 14.6049,-0.3212 18.7201,-1.4231 z"
             id="path5772-2-8-6-7-9-3"
             inkscape:connector-curvature="0" />
          <path
             style="color:#000000;font-style:normal;font-variant:normal;font-weight:normal;font-stretch:normal;font-size:medium;line-height:normal;font-family:sans-serif;text-indent:0;text-align:start;text-decoration:none;text-decoration-line:none;text-decoration-style:solid;text-decoration-color:#000000;letter-spacing:normal;word-spacing:normal;text-transform:none;direction:ltr;block-progression:tb;writing-mode:lr-tb;baseline-shift:baseline;text-anchor:start;white-space:normal;clip-rule:nonzero;display:inline;overflow:visible;visibility:visible;opacity:1;isolation:auto;mix-blend-mode:normal;color-interpolation:sRGB;color-interpolation-filters:linearRGB;solid-color:#000000;solid-opacity:1;fill:#000000;fill-opacity:1;fill-rule:evenodd;stroke:#d40037;stroke-width:0.15570971px;stroke-linecap:butt;stroke-linejoin:miter;stroke-miterlimit:4;stroke-dasharray:none;stroke-dashoffset:0;stroke-opacity:1;color-rendering:auto;image-rendering:auto;shape-rendering:auto;text-rendering:auto;enable-background:accumulate"
             d="m 2683.3759,2507.5034 0,44.396 0.078,0 0,-0.1553 0,0 0.078,-44.2407 z"
             id="path5373-9-3-3-1"
             inkscape:connector-curvature="0"
             sodipodi:nodetypes="ccccccc" />
        </g>
      </g>
    </g>
  </g>
</svg>
